<?xml version="1.0" standalone="no"?>
<!DOCTYPE svg PUBLIC "-//W3C//DTD SVG 20010904//EN"
 "http://www.w3.org/TR/2001/REC-SVG-20010904/DTD/svg10.dtd">
<svg version="1.0" xmlns="http://www.w3.org/2000/svg"
 width="512.000000pt" height="512.000000pt" viewBox="0 0 512.000000 512.000000"
 preserveAspectRatio="xMidYMid meet">
<metadata>
Created by potrace 1.14, written by Peter Selinger 2001-2017
</metadata>
<g transform="translate(0.000000,512.000000) scale(0.100000,-0.100000)"
fill="#000000" stroke="none">
<path d="M2368 5115 c-1 -1 -37 -5 -78 -9 -235 -20 -587 -115 -766 -204 -21
-11 -57 -28 -79 -38 -71 -31 -247 -135 -345 -203 -606 -419 -996 -1072 -1085
-1816 -17 -139 -16 -437 1 -579 35 -286 116 -563 241 -821 309 -641 870 -1121
1558 -1334 123 -38 289 -74 405 -87 30 -3 76 -10 103 -14 48 -7 471 -5 517 4
14 2 45 7 70 10 25 4 92 16 150 27 58 12 115 23 128 25 38 7 320 103 370 125
563 253 985 638 1256 1148 160 301 261 627 293 941 10 96 10 422 1 520 -60
595 -316 1135 -745 1565 -101 102 -142 137 -278 239 -378 283 -809 450 -1285
495 -80 8 -424 13 -432 6z"/>
</g>
</svg>
